<svg xmlns="http://www.w3.org/2000/svg" xmlns:xlink="http://www.w3.org/1999/xlink" version="1.1" id="Calque_1" x="0px" y="0px" width="100px" height="100px" viewBox="0 0 100 100" enable-background="new 0 0 100 100" xml:space="preserve">
<path d="M90.812,29.878c0,4.229-3.429,7.661-7.661,7.661H37.181c-4.229,0-7.661-3.432-7.661-7.661l0,0  c0-4.232,3.432-7.662,7.661-7.662H83.15C87.383,22.217,90.812,25.646,90.812,29.878L90.812,29.878z"/>
<path d="M24.243,29.878c0,4.229-3.432,7.661-7.662,7.661l0,0c-4.232,0-7.663-3.432-7.663-7.661l0,0c0-4.232,3.43-7.662,7.663-7.662  l0,0C20.811,22.217,24.243,25.646,24.243,29.878L24.243,29.878z"/>
<path d="M90.812,50.415c0,4.23-3.429,7.663-7.661,7.663H37.181c-4.229,0-7.661-3.433-7.661-7.663l0,0  c0-4.232,3.432-7.662,7.661-7.662H83.15C87.383,42.753,90.812,46.183,90.812,50.415L90.812,50.415z"/>
<path d="M24.243,50.415c0,4.23-3.432,7.663-7.662,7.663l0,0c-4.232,0-7.663-3.433-7.663-7.663l0,0c0-4.232,3.43-7.662,7.663-7.662  l0,0C20.811,42.753,24.243,46.183,24.243,50.415L24.243,50.415z"/>
<path d="M90.812,71.166c0,4.229-3.429,7.661-7.661,7.661H37.181c-4.229,0-7.661-3.432-7.661-7.661l0,0  c0-4.234,3.432-7.661,7.661-7.661H83.15C87.383,63.505,90.812,66.932,90.812,71.166L90.812,71.166z"/>
<path d="M24.243,71.166c0,4.229-3.432,7.661-7.662,7.661l0,0c-4.232,0-7.663-3.432-7.663-7.661l0,0c0-4.234,3.43-7.661,7.663-7.661  l0,0C20.811,63.505,24.243,66.932,24.243,71.166L24.243,71.166z"/>
</svg>